<svg xmlns="http://www.w3.org/2000/svg" viewBox="0 0 100 100">
  <defs>
    <linearGradient id="iconGrad" x1="0%" y1="0%" x2="100%" y2="100%">
      <stop offset="0%" style="stop-color:rgb(59, 130, 246);stop-opacity:1" />
      <stop offset="100%" style="stop-color:rgb(99, 102, 241);stop-opacity:1" />
    </linearGradient>
  </defs>
  <!-- Lucide Sparkles icon with gradient blue stroke - larger and centered -->
  <g transform="translate(8, 14) scale(3.5)" fill="none" stroke="url(#iconGrad)" stroke-width="2.5" stroke-linecap="round" stroke-linejoin="round">
    <path d="m12 3-1.912 5.813a2 2 0 0 1-1.275 1.275L3 12l5.813 1.912a2 2 0 0 1 1.275 1.275L12 21l1.912-5.813a2 2 0 0 1 1.275-1.275L21 12l-5.813-1.912a2 2 0 0 1-1.275-1.275z"/>
    <path d="M5 3v4"/>
    <path d="M19 17v4"/>
    <path d="M3 5h4"/>
    <path d="M17 19h4"/>
  </g>
</svg>
